<svg xmlns="http://www.w3.org/2000/svg" viewBox="0 0 800 300" width="800" height="300">
<defs><radialGradient id="sun" cx="0.5" cy="0.5" r="0.5"><stop offset="0" stop-color="#fff7c2"/><stop offset="0.6" stop-color="#fbbf24"/><stop offset="1" stop-color="#f97316"/></radialGradient></defs>
<rect width="800" height="300" fill="#0b1020"/>
<circle cx="189" cy="31" r="0.9" fill="#fff" opacity="0.54"/>
<circle cx="72" cy="6" r="1.2" fill="#fff" opacity="0.76"/>
<circle cx="640" cy="230" r="0.6" fill="#fff" opacity="0.56"/>
<circle cx="288" cy="234" r="0.6" fill="#fff" opacity="0.43"/>
<circle cx="754" cy="8" r="1.2" fill="#fff" opacity="0.70"/>
<circle cx="640" cy="58" r="0.9" fill="#fff" opacity="0.44"/>
<circle cx="694" cy="288" r="0.9" fill="#fff" opacity="0.34"/>
<circle cx="485" cy="202" r="1.2" fill="#fff" opacity="0.42"/>
<circle cx="198" cy="84" r="1.2" fill="#fff" opacity="0.72"/>
<circle cx="6" cy="88" r="1.2" fill="#fff" opacity="0.74"/>
<circle cx="678" cy="153" r="0.9" fill="#fff" opacity="0.51"/>
<circle cx="231" cy="135" r="0.6" fill="#fff" opacity="0.45"/>
<circle cx="650" cy="13" r="0.6" fill="#fff" opacity="0.53"/>
<circle cx="798" cy="156" r="1.2" fill="#fff" opacity="0.54"/>
<circle cx="274" cy="299" r="0.6" fill="#fff" opacity="0.33"/>
<circle cx="731" cy="191" r="0.9" fill="#fff" opacity="0.44"/>
<circle cx="285" cy="224" r="0.9" fill="#fff" opacity="0.62"/>
<circle cx="159" cy="97" r="0.6" fill="#fff" opacity="0.65"/>
<circle cx="222" cy="175" r="0.6" fill="#fff" opacity="0.36"/>
<circle cx="748" cy="87" r="0.6" fill="#fff" opacity="0.32"/>
<circle cx="558" cy="269" r="0.9" fill="#fff" opacity="0.67"/>
<circle cx="768" cy="5" r="0.9" fill="#fff" opacity="0.46"/>
<circle cx="122" cy="196" r="1.2" fill="#fff" opacity="0.64"/>
<circle cx="62" cy="185" r="0.9" fill="#fff" opacity="0.45"/>
<circle cx="200" cy="180" r="0.6" fill="#fff" opacity="0.47"/>
<circle cx="8" cy="13" r="0.6" fill="#fff" opacity="0.48"/>
<circle cx="643" cy="299" r="1.2" fill="#fff" opacity="0.35"/>
<circle cx="785" cy="127" r="0.6" fill="#fff" opacity="0.36"/>
<circle cx="50" cy="221" r="1.2" fill="#fff" opacity="0.64"/>
<circle cx="120" cy="12" r="0.9" fill="#fff" opacity="0.59"/>
<circle cx="257" cy="11" r="1.2" fill="#fff" opacity="0.45"/>
<circle cx="798" cy="195" r="0.6" fill="#fff" opacity="0.54"/>
<circle cx="193" cy="123" r="0.6" fill="#fff" opacity="0.41"/>
<circle cx="355" cy="194" r="0.9" fill="#fff" opacity="0.72"/>
<circle cx="399" cy="9" r="0.9" fill="#fff" opacity="0.43"/>
<circle cx="421" cy="232" r="0.9" fill="#fff" opacity="0.73"/>
<circle cx="113" cy="15" r="0.9" fill="#fff" opacity="0.58"/>
<circle cx="792" cy="121" r="1.2" fill="#fff" opacity="0.63"/>
<circle cx="633" cy="223" r="0.9" fill="#fff" opacity="0.49"/>
<circle cx="344" cy="279" r="1.2" fill="#fff" opacity="0.75"/>
<circle cx="740" cy="101" r="1.2" fill="#fff" opacity="0.54"/>
<circle cx="721" cy="95" r="0.9" fill="#fff" opacity="0.56"/>
<circle cx="524" cy="206" r="0.9" fill="#fff" opacity="0.47"/>
<circle cx="314" cy="149" r="0.9" fill="#fff" opacity="0.78"/>
<circle cx="535" cy="13" r="1.2" fill="#fff" opacity="0.36"/>
<circle cx="775" cy="200" r="0.6" fill="#fff" opacity="0.74"/>
<circle cx="550" cy="139" r="0.9" fill="#fff" opacity="0.67"/>
<circle cx="742" cy="66" r="0.6" fill="#fff" opacity="0.41"/>
<circle cx="125" cy="183" r="0.9" fill="#fff" opacity="0.36"/>
<circle cx="648" cy="235" r="0.6" fill="#fff" opacity="0.58"/>
<circle cx="703" cy="61" r="1.2" fill="#fff" opacity="0.60"/>
<circle cx="655" cy="169" r="0.9" fill="#fff" opacity="0.76"/>
<circle cx="352" cy="24" r="1.2" fill="#fff" opacity="0.60"/>
<circle cx="391" cy="259" r="1.2" fill="#fff" opacity="0.69"/>
<circle cx="33" cy="24" r="1.2" fill="#fff" opacity="0.75"/>
<circle cx="238" cy="104" r="0.6" fill="#fff" opacity="0.34"/>
<circle cx="435" cy="114" r="0.9" fill="#fff" opacity="0.49"/>
<circle cx="607" cy="257" r="0.9" fill="#fff" opacity="0.35"/>
<circle cx="92" cy="186" r="0.9" fill="#fff" opacity="0.56"/>
<circle cx="347" cy="257" r="0.9" fill="#fff" opacity="0.33"/>
<circle cx="705" cy="59" r="0.9" fill="#fff" opacity="0.76"/>
<circle cx="383" cy="35" r="1.2" fill="#fff" opacity="0.38"/>
<circle cx="699" cy="53" r="0.6" fill="#fff" opacity="0.46"/>
<circle cx="688" cy="78" r="0.6" fill="#fff" opacity="0.66"/>
<circle cx="4" cy="94" r="1.2" fill="#fff" opacity="0.36"/>
<circle cx="629" cy="180" r="1.2" fill="#fff" opacity="0.34"/>
<circle cx="196" cy="254" r="0.9" fill="#fff" opacity="0.41"/>
<circle cx="144" cy="259" r="0.6" fill="#fff" opacity="0.64"/>
<circle cx="488" cy="94" r="0.9" fill="#fff" opacity="0.69"/>
<circle cx="455" cy="281" r="1.2" fill="#fff" opacity="0.69"/>
<circle cx="490" cy="133" r="0.6" fill="#fff" opacity="0.43"/>
<circle cx="478" cy="296" r="0.9" fill="#fff" opacity="0.37"/>
<circle cx="66" cy="43" r="1.2" fill="#fff" opacity="0.39"/>
<circle cx="722" cy="112" r="1.2" fill="#fff" opacity="0.70"/>
<circle cx="540" cy="265" r="0.6" fill="#fff" opacity="0.50"/>
<circle cx="749" cy="54" r="1.2" fill="#fff" opacity="0.49"/>
<circle cx="140" cy="265" r="1.2" fill="#fff" opacity="0.31"/>
<circle cx="760" cy="249" r="0.9" fill="#fff" opacity="0.70"/>
<circle cx="763" cy="48" r="1.2" fill="#fff" opacity="0.79"/>
<circle cx="529" cy="298" r="0.6" fill="#fff" opacity="0.68"/>
<circle cx="775" cy="35" r="1.2" fill="#fff" opacity="0.54"/>
<circle cx="709" cy="67" r="1.2" fill="#fff" opacity="0.45"/>
<circle cx="742" cy="122" r="1.2" fill="#fff" opacity="0.42"/>
<circle cx="392" cy="66" r="0.9" fill="#fff" opacity="0.42"/>
<circle cx="261" cy="188" r="0.9" fill="#fff" opacity="0.75"/>
<circle cx="320" cy="120" r="0.9" fill="#fff" opacity="0.44"/>
<circle cx="329" cy="4" r="0.6" fill="#fff" opacity="0.75"/>
<circle cx="367" cy="168" r="0.9" fill="#fff" opacity="0.50"/>
<circle cx="311" cy="8" r="1.2" fill="#fff" opacity="0.33"/>
<circle cx="779" cy="296" r="0.9" fill="#fff" opacity="0.60"/>
<circle cx="-70" cy="115" r="160" fill="url(#sun)"/>
<circle cx="150" cy="115" r="5" fill="#a8a29e"/>
<line x1="150" y1="126" x2="150" y2="189" stroke="#94a3b8" stroke-width="1" stroke-dasharray="2 3"/>
<circle cx="212" cy="115" r="9" fill="#e7c68a"/>
<line x1="212" y1="130" x2="212" y2="189" stroke="#94a3b8" stroke-width="1" stroke-dasharray="2 3"/>
<circle cx="278" cy="115" r="10" fill="#3b82f6"/>
<line x1="278" y1="131" x2="278" y2="189" stroke="#94a3b8" stroke-width="1" stroke-dasharray="2 3"/>
<circle cx="340" cy="115" r="7" fill="#dc5b32"/>
<line x1="340" y1="128" x2="340" y2="189" stroke="#94a3b8" stroke-width="1" stroke-dasharray="2 3"/>
<circle cx="440" cy="115" r="36" fill="#d6a77a"/>
<line x1="440" y1="157" x2="440" y2="189" stroke="#94a3b8" stroke-width="1" stroke-dasharray="2 3"/>
<ellipse cx="570" cy="115" rx="55.099999999999994" ry="15.950000000000001" fill="none" stroke="#cdb57e" stroke-width="5" opacity="0.9"/>
<circle cx="570" cy="115" r="29" fill="#e8cf94"/>
<line x1="570" y1="150" x2="570" y2="189" stroke="#94a3b8" stroke-width="1" stroke-dasharray="2 3"/>
<circle cx="680" cy="115" r="18" fill="#93d8e0"/>
<line x1="680" y1="139" x2="680" y2="189" stroke="#94a3b8" stroke-width="1" stroke-dasharray="2 3"/>
<circle cx="760" cy="115" r="17" fill="#4f6fdc"/>
<line x1="760" y1="138" x2="760" y2="189" stroke="#94a3b8" stroke-width="1" stroke-dasharray="2 3"/>
</svg>